<?xml version="1.0" encoding="utf-8"?>
<!-- Svg Vector Icons : http://www.onlinewebfonts.com/icon -->
<!DOCTYPE svg PUBLIC "-//W3C//DTD SVG 1.1//EN" "http://www.w3.org/Graphics/SVG/1.1/DTD/svg11.dtd">
<svg version="1.1" xmlns="http://www.w3.org/2000/svg" xmlns:xlink="http://www.w3.org/1999/xlink" x="0px" y="0px" viewBox="0 0 1000 1000" enable-background="new 0 0 1000 1000" xml:space="preserve">
<metadata> Svg Vector Icons : http://www.onlinewebfonts.com/icon </metadata>
<g><g transform="translate(0.000000,484.000000) scale(0.100000,-0.100000)"><path d="M3884,4511.6c-43-21.5-95.9-54.8-119.3-74.3c-119.3-101.7-221.1-322.8-264.1-561.5l-21.5-127.2l-168.2-90c-453.9-242.6-1068.2-741.5-1410.6-1148.4l-121.3-144.8l-199.5,17.6c-365.8,31.3-798.2-35.2-1036.9-154.6c-221.1-113.5-420.6-371.7-440.2-573.2c-27.4-287.6,189.8-673,489.1-866.7c111.5-72.4,107.6-29.3,45-436.3c-41.1-264.1-46.9-858.8-11.7-1124.9c138.9-1044.7,620.2-1983.7,1402.7-2738.9c757.1-729.7,1690.3-1175.8,2785.9-1332.3c254.3-37.2,903.9-31.3,1173.8,9.8c487.1,72.4,903.8,203.5,1330.3,414.7c483.2,240.7,663.2,373.7,1062.3,776.7c360,365.8,481.3,504.8,669.1,766.9c446.1,622.1,743.4,1408.6,833.4,2198.9c37.2,334.6,13.7,972.3-48.9,1299c-64.6,336.5-187.8,712.1-336.5,1031c-105.7,225-115.4,254.3-113.5,381.5c0,181.9,35.2,248.5,174.1,318.9l107.6,54.8l-68.5,115.4c-95.9,158.5-154.6,215.2-291.5,283.7c-140.8,72.4-307.1,78.3-471.5,21.5l-105.6-37.2l-142.8,136.9c-340.4,328.7-723.9,594.7-1160.1,808c-463.7,228.9-911.7,363.9-1418.4,432.4c-244.6,31.3-804.1,35.2-1036.9,5.9l-164.3-19.6l-39.1,54.8c-74.3,107.6-215.2,226.9-322.8,277.8C4294.8,4556.6,4003.3,4570.3,3884,4511.6z M4304.6,4165.3c131.1-66.5,273.9-299.3,324.8-532.1c64.6-293.5,54.8-839.3-23.5-1361.6c-123.2-837.3-19.6-1443.8,336.5-1942.7c328.7-459.7,892.1-786.4,1563.1-907.8c119.3-21.5,283.7-50.9,365.8-64.5c477.3-88,915.6-432.4,1097.5-864.7c156.5-371.7,146.7-921.4-27.4-1524l-45-150.6l-273.9,9.8c-309.1,9.8-442.1,39.1-649.5,140.9c-360,176.1-563.5,598.7-524.3,1095.6c45,563.4-31.3,866.7-281.7,1128.8c-254.3,266.1-590.8,334.5-1277.5,258.2c-285.6-31.3-287.6-31.3-418.7,11.7C4306.6-483,4124.6-348,4028.8-205.2C3956.4-99.6,3921.2-3.7,3837,313.2c-146.7,549.7-426.5,1044.7-792.3,1410.5c-203.5,201.5-399.1,338.4-663.2,467.6L2170.2,2295l201.5,201.5c389.3,387.4,766.9,645.6,1250.1,858.8l187.8,82.2l21.5,226.9c23.5,246.5,60.6,397.1,119.3,471.5C4009.2,4212.3,4185.3,4227.9,4304.6,4165.3z M5801.2,3842.5c931.2-80.2,1760.7-446.1,2468.9-1087.7l162.4-148.7L8221.3,2387c-242.6-248.5-383.5-459.7-473.4-708.2c-162.4-450-150.6-898,37.2-1412.5c99.8-275.8,305.2-633.9,481.3-843.2c221.1-262.1,332.6-745.4,285.6-1248.2c-21.5-240.6-90-590.8-148.7-766.9c-15.6-48.9-23.5-66.5-17.6-39.1c25.4,119.3,31.3,647.6,9.8,804.1C8330.8-1390.8,8115.6-978,7828-737.4c-326.7,271.9-657.3,406.9-1183.6,485.2c-358,50.9-731.7,193.7-1019.3,385.4c-64.6,43-187.8,150.6-275.8,238.7c-129.1,131.1-176.1,197.6-258.3,363.9c-209.3,418.7-244.5,804.1-138.9,1504.4c58.7,379.5,66.5,1197.3,11.7,1426.2c-17.6,80.2-29.3,150.6-23.5,154.6c11.7,13.7,295.4,37.2,469.5,39.1C5496.1,3862.1,5672.1,3854.2,5801.2,3842.5z M9125.1,2516.1l48.9-19.6l-56.7-103.7c-133-248.5-119.3-473.4,56.7-854.9C9459.7,921.6,9567.3,438.4,9567.3-215c0-399.1-33.3-673-127.2-1038.8c-111.5-436.2-305.2-872.5-559.5-1259.9c-127.2-193.7-160.4-225-115.4-107.6c11.7,29.3,41.1,160.4,68.5,291.5c166.3,825.6,70.4,1496.6-279.8,1952.5c-236.7,309.1-432.4,673-516.5,964.5c-64.6,228.9-64.6,641.7,0,851c92,287.6,215.2,487.1,451.9,729.7C8788.6,2471.1,8972.5,2572.8,9125.1,2516.1z M1851.3,1997.6c320.8-48.9,659.3-234.8,946.9-518.4c340.4-338.5,575.2-780.6,725.8-1367.5c119.3-463.7,334.5-753.2,688.6-921.4c256.3-123.3,326.7-131.1,727.8-90c549.8,54.8,804.1,21.5,976.2-129.1c162.4-142.8,223-408.9,183.9-786.4c-29.3-260.2-1.9-549.7,72.4-770.8c199.6-590.8,766.9-944.9,1516.2-944.9c342.4,0,330.6-41.1-88-322.8c-512.6-342.4-1078-561.5-1670.7-643.7c-285.6-41.1-833.4-41.1-1119.1,0c-933.2,129.1-1866.4,585-2558.9,1250.1C1555.9-2578.3,1133.3-1784,986.6-860.6c-50.9,307.2-48.9,878.4,3.9,1193.4c19.6,129.1,37.2,293.5,37.2,365.8c-2,113.5-9.8,142.8-60.6,215.2c-31.3,46.9-101.7,111.5-152.6,146.7c-52.8,33.3-129.1,95.9-172.2,136.9c-146.7,142.8-226.9,389.3-166.3,508.7c70.4,135,273.9,258.2,495,297.4c62.6,11.7,136.9,25.4,164.3,29.3C1219.4,2048.5,1665.5,2027,1851.3,1997.6z"/></g></g>
</svg>