<?xml version="1.0" encoding="utf-8"?>
<!-- Svg Vector Icons : http://www.onlinewebfonts.com/icon -->
<!DOCTYPE svg PUBLIC "-//W3C//DTD SVG 1.1//EN" "http://www.w3.org/Graphics/SVG/1.1/DTD/svg11.dtd">
<svg version="1.1" xmlns="http://www.w3.org/2000/svg" xmlns:xlink="http://www.w3.org/1999/xlink" x="0px" y="0px" viewBox="0 0 1000 1000" enable-background="new 0 0 1000 1000" xml:space="preserve">
<metadata> Svg Vector Icons : http://www.onlinewebfonts.com/icon </metadata>
<g><g><path d="M952.1,990c0-151.1-74.3-284.5-188.2-366.7c18.9-25.1,34.6-52.9,46-83.5c36.7-1.7,66.1-40.5,66.1-87.8c0-36.5-18-67.7-43.9-80.4c7.1-63.7,6.5-167.9-86.7-237.5C617.2,38.1,502.3,5.4,384,71.6c0.7-16.5,3.7-36.6,10.4-61.6c0,0-40.4,19.5-48.2,68.9c0,0-33.9-16.9-59.8,16.9c0,0,12.9,1.2,29.1,6.4c-34.8,15.4-69,39.7-95.1,71C169.5,234,162.8,314.1,167.2,372c-25.6,13-43.1,44-43.1,80c0,47.3,29.5,86.1,66.1,87.9c11.3,30.5,27,58.4,45.9,83.5C122.2,705.5,47.9,838.9,47.9,990h329.9V731.7c38.2,15.1,79.5,23.5,122.2,23.5c51.8,0,101.5-12.2,146-34V990L952.1,990L952.1,990L952.1,990z M500,731.5c-43,0-84.4-9.1-122.1-25.4c-12.8-5.6-25.2-11.9-37.1-19.1C308,667,279,641,255.5,610c-19.6-25.9-35.4-55.1-46.3-87.1l-3.1-9.1h0l-9.6,1.3c-0.1,0-0.1,0-0.2,0c-1.3,0.2-2.1,0.5-2.8,0.7c-0.5,0.1-1.1,0.3-1.5,0.4c-24.5-0.6-44.2-29.1-44.2-64.2c0-5.8,0.6-11.4,1.7-16.7c0.9-4.6,2.3-8.8,3.9-12.8c0.2-0.6,0.4-1.2,0.6-1.8c1.8-4.3,4-8.1,6.5-11.7c0.3-0.4,0.5-0.8,0.7-1.1c2.1-2.9,4.5-5.2,6.9-7.5c0.7-0.7,1.4-1.5,2.1-2.1c4.3,29.9,10.7,49.6,12,49.1c-0.7-0.7-0.2-4.9,1.3-11c8.9-34.5,57.4-140.4,189.7-171c3.1-0.7,5.9-1.7,8.9-2.5c70.2,48.4,105.7,36.9,173.2,24.5c19.4-3.6,36.8-5,53.6-5.7c40.3-1.3,72.8,5.2,99,16.7c47.9,29.4,77.2,68.9,93.5,100c9.7,25.8,11.1,46.4,9.5,49.1c0.7,0.2,3.1-4.1,5.9-11c1.5,6.1,2,10.3,1.3,11c1.4,0.5,7.6-19.2,12-49.1c0.8,0.7,1.4,1.4,2.1,2.1c2.4,2.2,5,4.6,6.9,7.5c0.2,0.4,0.4,0.7,0.6,1c2.4,3.6,4.8,7.5,6.5,11.7c0.2,0.6,0.3,1.2,0.6,1.8c1.6,4.1,3,8.4,3.9,12.9c1,5.4,1.6,10.9,1.6,16.7c0,35.2-19.7,63.7-44.2,64.2c-0.4-0.1-1-0.3-1.5-0.4c-0.9-0.3-1.6-0.7-2.8-0.7c-0.1,0-0.1-0.1-0.2-0.1l-9.7-1.2l0,0l-3.1,9.1c-10.9,32-26.7,61.3-46.3,87.2c-23.5,31-52.4,57-85.3,77c-4.3,2.6-8.9,4.9-13.3,7.4C602.1,718.2,552.2,731.5,500,731.5z M500,652.7c38.6,0,72.8-9.7,95.2-24.8c-15.5,23.7-52.2,40.3-95.2,40.3c-43,0-79.8-16.6-95.2-40.3C427.2,642.9,461.3,652.7,500,652.7z M403.8,447.3c0,20.9-17.1,38.1-38.1,38.1c-21,0-38.1-17.1-38.1-38.1c0-21,17.1-38.1,38.1-38.1C386.8,409.2,403.8,426.3,403.8,447.3z M634.2,485.4c-21.1,0-38.2-17.1-38.2-38.2c0-21,17-38.1,38.2-38.1c20.9,0,38.1,17.1,38.1,38.1C672.3,468.3,655.2,485.4,634.2,485.4z"/></g><g></g><g></g><g></g><g></g><g></g><g></g><g></g><g></g><g></g><g></g><g></g><g></g><g></g><g></g><g></g></g>
</svg>