<?xml version="1.0" encoding="utf-8"?>
<!-- Svg Vector Icons : http://www.onlinewebfonts.com/icon -->
<!DOCTYPE svg PUBLIC "-//W3C//DTD SVG 1.1//EN" "http://www.w3.org/Graphics/SVG/1.1/DTD/svg11.dtd">
<svg version="1.1" xmlns="http://www.w3.org/2000/svg" xmlns:xlink="http://www.w3.org/1999/xlink" x="0px" y="0px" viewBox="0 0 1000 1000" enable-background="new 0 0 1000 1000" xml:space="preserve">
<metadata> Svg Vector Icons : http://www.onlinewebfonts.com/icon </metadata>
<g><g><path d="M637.8,438.5c-16.9,0-30.6,13.7-30.6,30.6c0,16.9,13.7,30.6,30.6,30.6s30.6-13.7,30.6-30.6C668.4,452.3,654.7,438.5,637.8,438.5z"/><path d="M362.2,438.5c-16.9,0-30.6,13.7-30.6,30.6c0,16.9,13.7,30.6,30.6,30.6s30.6-13.7,30.6-30.6C392.8,452.3,379.1,438.5,362.2,438.5z"/><path d="M898.3,356.7C842.8,331.2,779.8,316,729.7,316c-0.1,0-0.3,0-0.4,0c-10.8-25.9-26.7-51.6-45.8-73.6c0-0.2,0.1-0.4,0.1-0.6c6.2-44.2,16.6-96.5,23.3-110.5C719.5,130,752,134.3,828,178c48.9,28.1,91.4,58.5,91.8,58.8c6.4,4.6,15.3,3.6,20.5-2.4c5.2-6,5-14.9-0.5-20.6c-0.5-0.5-48.8-50.7-103.1-100.2C734.9,20.7,700.7,10,683.8,10c-29.3,0-58.2,22.6-85.8,67.1c-20.9,33.7-37.5,73.9-48.5,104c-9.5,1.7-18.7,4.7-27.7,9.1c-13.7,6.7-30,6.7-43.7,0c-9-4.4-18.2-7.4-27.7-9.1c-11-30.1-27.6-70.4-48.5-104C374.4,32.6,345.6,10,316.3,10c-16.9,0-51.2,10.7-152.9,103.5C109,163.1,60.7,213.3,60.2,213.8c-5.5,5.7-5.7,14.7-0.5,20.6c5.2,6,14.1,7,20.5,2.4c0.4-0.3,42.9-30.8,91.8-58.8c76-43.6,108.5-48,121.1-46.7c6.7,14,17.1,66.3,23.3,110.5c0,0.2,0.1,0.4,0.1,0.6c-19.1,22-35,47.7-45.8,73.6c-0.1,0-0.3,0-0.4,0c-50.1,0-113.1,15.2-168.6,40.6c-79.8,36.6-91.7,67-91.7,81.9c0,30.5,38.7,65.3,82.8,74.5c7.3,1.5,14.4,2.3,21.3,2.3c34.2,0,61.8-18.9,77.7-53.9c13-18.9,30-26.4,51.9-22.9c11,1.7,20.7,5.9,26.7,9c4.1,139.1,99.9,403.1,107.6,424.3c8.6,38,21.9,66.1,40.8,85.7c20.7,21.5,48,32.4,81.1,32.4c52.4,0,83.9-29.8,102.8-65.8c2.4-2.4,3.8-5.5,4.3-8.7c6.6-14.3,11.4-29.2,14.8-43.5c7.5-20.3,103.6-282.9,107.7-424.4c6.1-3.1,15.8-7.2,26.7-9c22-3.5,39,4,51.9,22.9c15.8,35,43.5,53.9,77.7,53.9c6.8,0,14-0.8,21.3-2.3c44.1-9.2,82.8-44.1,82.8-74.5C990,423.7,978.1,393.3,898.3,356.7z M683.8,40.6c6.5,0,35.1,6.9,132.2,95.4c0.3,0.3,0.6,0.5,0.8,0.8C759.9,106.9,720,95.6,695,102.4c-12.2,3.3-20,15.3-31.6,74.5c-2.8,14.1-5.1,28-6.9,39c-4.2-3.5-8.6-6.9-13-10c-20.1-14.2-40.8-22.7-61.2-25.4C615.4,93.7,653.6,40.6,683.8,40.6z M305,102.4c-24.9-6.8-64.9,4.5-121.7,34.4c0.2-0.2,0.5-0.4,0.7-0.7c97.2-88.6,125.8-95.5,132.3-95.5c30.1,0,68.3,53.1,101.3,139.8c-20.4,2.8-41.1,11.3-61.2,25.4c-4.4,3.1-8.7,6.5-13,10c-1.8-10.9-4.1-24.8-6.9-39C327.3,129.8,320.2,106.6,305,102.4z M99.1,483.1c-31.7-6.6-58.5-32.1-58.5-44.6c0-7,21.7-30.1,73.9-54c48-22,101.7-35.8,145.9-37.6c0,0.1-0.1,0.2-0.1,0.3c-20,3.1-60.7,20-95.9,100.5C148.2,484.9,119.9,487.5,99.1,483.1z M222.8,407.8c12.7-15.8,24.3-23.5,32.6-27.2c-0.2,5.6,0,11.1,0.6,16.4c0.5,4.7,1.4,9.2,2.6,13.4C247.9,407.7,235.5,406.2,222.8,407.8z M448.8,943.5c0.4,0,0.9,0,1.3,0c7.4,0,15-0.9,22.8-2.7c11.3-2.6,20.8-6.7,27.2-9.9c6.3,3.2,15.9,7.3,27.2,9.9c7.6,1.8,14.9,2.6,22.1,2.7c-13.7,10.6-30.1,15.9-49.2,15.9C479.5,959.4,462.6,954.2,448.8,943.5z M515.2,850.3c-0.9-7.6-7.4-13.4-15.2-13.4c-7.8,0-14.3,5.9-15.2,13.5c-20.6-5.1-37.4-21.3-43.5-42.2c-1.6-5.6-2.5-11.3-2.5-16.9c0-0.6,0-2.6,2-3.6c0.4-0.2,1.1-0.5,1.9-0.5c0.9,0,1.9,0.3,3.1,1.1c15.8,11.8,34.6,18,54.3,18c19.7,0,38.5-6.2,54.3-18c2-1.5,4.2-1.3,5.5-0.6c1.3,0.7,1.5,1.5,1.5,2.3l0,1c0,18.2-8,35.3-22,47C532.1,843.9,523.9,848.1,515.2,850.3z M592.8,862.2c-0.2,0.6-0.4,1.2-0.5,1.8c-3.7,15.3-8.2,28.6-13.5,40.2c-23.4,16.1-50.8,6.4-63.5,0.3v-22.9c16-2.7,31-9.5,43.7-20.1c20.9-17.5,32.9-43.2,32.9-70.5c0-0.5,0-1,0-1.6c-0.2-12.7-7.2-23.6-18.6-29.2c-12.1-5.9-26.3-4.6-37.3,3.6c-10.5,7.8-22.9,11.9-36,11.9s-25.5-4.1-36-11.9c-10.9-8.1-25.1-9.5-37.1-3.4c-11.7,5.9-18.9,17.8-18.8,31.1c0,8.4,1.3,17,3.8,25.3c9.7,33.3,37.7,58.6,71.3,64.6c0.5,0.1,1,0.1,1.5,0.2v22.8c-12.9,6.2-41.2,16.1-64.9-1.3c-4.8-11.2-8.8-24.1-12-38.9c-0.1-0.7-0.3-1.3-0.6-2c-1-2.8-98.7-269.4-105.8-408.4c5.8-0.2,11.2-3.8,13.5-9.5c3.2-7.8-0.5-16.8-8.4-20c-11.7-4.8-18.3-14.9-20.1-30.8c-5-44.1,31.4-123.1,87.6-162.7c39.9-28.1,71.3-22.7,90.6-13.2c22.1,10.8,48.5,10.8,70.7,0c19.3-9.5,50.8-14.9,90.6,13.2c56.2,39.6,92.6,118.5,87.6,162.7c-1.8,15.9-8.4,26-20.1,30.8c-7.8,3.2-11.6,12.2-8.4,20c2.3,5.7,7.8,9.2,13.5,9.5C691.6,594.7,593.9,859.4,592.8,862.2z M741.4,410.4c1.2-4.2,2.1-8.7,2.6-13.4c0.6-5.3,0.8-10.7,0.6-16.4c8.3,3.7,19.9,11.4,32.6,27.2C764.5,406.2,752.1,407.7,741.4,410.4z M900.9,483.1c-20.8,4.4-49.1,1.8-65.3-35.4c-35.2-80.5-75.9-97.4-95.9-100.5c0-0.1-0.1-0.2-0.1-0.3c44.2,1.8,97.9,15.6,145.9,37.6c52.2,23.9,73.9,47,73.9,54C959.4,451,932.6,476.5,900.9,483.1z"/></g><g></g><g></g><g></g><g></g><g></g><g></g><g></g><g></g><g></g><g></g><g></g><g></g><g></g><g></g><g></g></g>
</svg>