<?xml version="1.0" encoding="utf-8"?>
<!-- Svg Vector Icons : http://www.onlinewebfonts.com/icon -->
<!DOCTYPE svg PUBLIC "-//W3C//DTD SVG 1.1//EN" "http://www.w3.org/Graphics/SVG/1.1/DTD/svg11.dtd">
<svg version="1.1" xmlns="http://www.w3.org/2000/svg" xmlns:xlink="http://www.w3.org/1999/xlink" x="0px" y="0px" viewBox="0 0 1000 1000" enable-background="new 0 0 1000 1000" xml:space="preserve">
<metadata> Svg Vector Icons : http://www.onlinewebfonts.com/icon </metadata>
<g><g transform="translate(0.000000,511.000000) scale(0.100000,-0.100000)"><path d="M138.9,4121.1c-85.7-88.8-21.4-211.2,110.2-211.2c147,0,345.9-134.7,698-465.3c722.5-688.8,1010.2-688.8,1732.7,0c652.1,618.4,792.9,618.4,1448,0c731.7-688.8,1013.3-688.8,1735.8,0c652.1,618.4,799,618.4,1451.1,0C8031,2761.8,8328,2758.8,9029,3426.2c376.5,358.2,502,446.9,685.7,477.6c251,42.9,244.9,235.7-6.1,232.7c-211.2,0-404.1-119.4-802.1-492.9c-664.3-624.5-792.9-624.5-1457.2,3.1c-431.6,407.2-581.7,492.9-860.2,492.9c-278.6,0-425.5-82.7-866.3-495.9c-664.3-624.5-792.9-624.5-1457.2,3.1c-431.7,407.2-581.7,492.9-860.2,492.9c-281.7,0-422.5-79.6-860.2-489.8c-670.4-630.6-799-630.6-1463.3-3.1c-195.9,186.7-425.5,373.5-508.2,413.3C396.1,4148.6,191,4176.2,138.9,4121.1z"/><path d="M138.9,2406.7c-85.7-88.8-21.4-211.2,110.2-211.2c147,0,345.9-131.6,704.1-471.4c391.9-370.4,575.5-480.6,820.4-502.1c257.1-21.4,477.5,101,906.1,508.2c652.1,618.4,799,618.4,1451.1,0c722.5-688.8,1010.2-688.8,1732.7,0c652.1,618.4,799,618.4,1451.1,0C8031,1047.5,8328,1044.4,9029,1711.8c376.5,358.2,502,446.9,685.7,477.5c251,42.9,244.9,235.7-6.1,232.7c-211.2,0-404.1-119.4-802.1-492.9c-664.3-624.5-792.9-624.5-1457.2,3.1c-431.6,407.2-581.7,492.9-860.2,492.9c-281.6,0-422.5-79.6-860.2-489.8c-670.4-630.6-799-630.6-1463.3-3.1c-431.7,407.2-581.7,492.9-860.2,492.9s-425.5-82.7-866.3-495.9c-664.3-624.5-792.9-624.5-1457.2,3.1c-195.9,186.7-425.5,373.5-508.2,413.3C396.1,2434.3,191,2461.8,138.9,2406.7z"/><path d="M138.9,692.4c-85.7-88.8-21.4-211.2,110.2-211.2c147,0,345.9-134.7,698-465.3c722.5-688.8,1010.2-688.8,1732.7,0C3335,634.2,3475.8,634.2,4137,9.7c391.9-370.4,575.5-480.6,820.4-502.1c257.2-21.4,477.6,101,906.1,508.2c652.1,618.4,799,618.4,1451.1,0C8031-666.9,8328-669.9,9029-2.5c376.5,358.2,502,447,685.7,477.6c251,42.9,244.9,235.7-6.1,235.7c-214.3-3.1-398-116.3-795.9-489.8c-670.4-630.6-799-630.6-1463.3-3.1c-431.6,407.2-581.7,492.9-860.2,492.9c-278.6,0-425.5-82.7-866.3-495.9c-664.3-624.5-792.9-624.5-1457.2,3.1C3834,625,3684,710.8,3405.4,710.8s-425.5-82.7-866.3-495.9c-664.3-624.5-792.9-624.5-1457.2,3.1C885.9,404.6,656.3,591.4,573.7,631.2C396.1,719.9,191,747.5,138.9,692.4z"/><path d="M138.9-1022c-85.7-88.8-21.4-211.2,110.2-211.2c147,0,345.9-134.7,698-465.3c722.5-688.8,1010.2-688.8,1732.7,0c652.1,618.4,799,618.4,1451.1,0c722.5-688.8,1010.2-688.8,1732.7,0c655.1,618.4,795.9,618.4,1457.2-6.1c199-186.8,425.5-373.5,511.2-413.3c388.8-192.9,673.5-98,1197,401c376.5,358.2,502,446.9,685.7,477.6c251,42.9,244.9,235.7-6.1,232.7c-211.2,0-404.1-119.4-802.1-492.9c-664.3-624.5-792.9-624.5-1457.2,3.1c-431.6,407.1-581.7,492.9-860.2,492.9c-278.6,0-425.5-82.7-866.3-495.9c-664.3-624.5-792.9-624.5-1457.2,3.1c-431.7,407.1-581.7,492.9-860.2,492.9s-425.5-82.7-866.3-495.9c-664.3-624.5-792.9-624.5-1457.2,3.1c-195.9,186.7-425.5,373.5-508.2,413.3C396.1-994.4,191-966.9,138.9-1022z"/><path d="M138.9-2736.3c-85.7-88.8-21.4-211.2,110.2-211.2c147,0,345.9-134.7,698-465.3c722.5-688.8,1010.2-688.8,1732.7,0c652.1,618.4,799,618.4,1451.1,0c722.5-688.8,1010.2-688.8,1732.7,0c652.1,618.4,799,618.4,1451.1,0C8031-4095.5,8328-4098.6,9029-3431.2c376.5,358.2,502,446.9,685.7,477.6c251,42.9,244.9,235.7-6.1,232.7c-211.2,0-404.1-119.4-802.1-492.9c-664.3-624.5-792.9-624.5-1457.2,3.1c-431.6,407.1-581.7,492.9-860.2,492.9c-278.6,0-425.5-82.7-866.3-495.9c-664.3-624.5-792.9-624.5-1457.2,3.1c-431.7,407.1-581.7,492.9-860.2,492.9s-425.5-82.7-866.3-495.9c-664.3-624.5-792.9-624.5-1457.2,3.1c-195.9,186.7-425.5,373.5-508.2,413.3C396.1-2708.8,191-2681.2,138.9-2736.3z"/></g></g>
</svg>