<?xml version="1.0" encoding="utf-8"?>
<!-- Svg Vector Icons : http://www.onlinewebfonts.com/icon -->
<!DOCTYPE svg PUBLIC "-//W3C//DTD SVG 1.1//EN" "http://www.w3.org/Graphics/SVG/1.1/DTD/svg11.dtd">
<svg version="1.1" xmlns="http://www.w3.org/2000/svg" xmlns:xlink="http://www.w3.org/1999/xlink" x="0px" y="0px" viewBox="0 0 1000 1000" enable-background="new 0 0 1000 1000" xml:space="preserve">
<metadata> Svg Vector Icons : http://www.onlinewebfonts.com/icon </metadata>
<g><g><path d="M653.1,484.7c-16.9,0-30.6,13.7-30.6,30.6s13.7,30.6,30.6,30.6c16.9,0,30.6-13.7,30.6-30.6S670,484.7,653.1,484.7z"/><path d="M346.9,484.7c-16.9,0-30.6,13.7-30.6,30.6s13.7,30.6,30.6,30.6s30.6-13.7,30.6-30.6S363.8,484.7,346.9,484.7z"/><path d="M914.1,509.9c-18.1-49.6-47.5-115.7-92-179c32.5-142.7,9.6-255.3-25.7-299.8C782.6,13.7,769.1,10,760.3,10C736,10,709,37.5,666.8,82.5c-15.9,16.9-32.3,34.5-46.7,47.2c-19.5,17.3-27,18.2-28.3,18.2c-1.7,0-3.4,0.3-5,0.8c-27.9-8.8-56.6-14.2-85.9-16.1c-0.1,0-0.1,0-0.2,0c-0.3,0-0.5,0-0.8,0c-0.3,0-0.5,0-0.8,0c-0.1,0-0.1,0-0.2,0c-29.3,1.9-58,7.3-85.9,16.1c-1.6-0.5-3.2-0.8-5-0.8c-1.3,0-8.7-0.9-28.3-18.2c-14.4-12.7-30.8-30.2-46.7-47.2C291,37.5,264,10,239.7,10c-8.8,0-22.3,3.7-36.1,21.1c-35.3,44.5-58.1,157.1-25.7,299.8c-44.5,63.4-73.9,129.4-92,179c-28.3,77.6-45.3,159.7-45.3,219.8c0,4.9,2.4,9.5,6.4,12.4c4,2.9,9.1,3.7,13.8,2.1l25.8-8.6v85.9c0,5.6,3.1,10.8,8.1,13.5c5,2.7,11,2.4,15.7-0.8l68.1-45.4v17.3c0,4.6,2.1,9,5.7,11.9c3.6,2.9,8.3,4,12.9,3c1.2-0.3,123.1-26.1,151.2,37.2c0,0,0,0,0,0c3.3,22.7,13,41,28.9,54.7c-0.6,4.4-0.3,10,0.5,17.3c3.7,34,56.3,59.6,122.4,59.6h0.2c65.8,0,118.3-25.6,121.9-59.6c0.8-7.5,1.2-12.9,0.7-17.2c16-13.7,25.7-32,29-54.8c0,0,0,0,0,0c28-63.2,149.9-37.5,151.2-37.2c4.5,1,9.3-0.1,12.9-3c3.6-2.9,5.7-7.3,5.7-11.9v-17.3l68.1,45.4c4.7,3.1,10.7,3.4,15.7,0.8c5-2.7,8.1-7.9,8.1-13.5v-85.9l25.8,8.6c4.7,1.6,9.8,0.8,13.8-2.1c4-2.9,6.4-7.5,6.4-12.4C959.4,669.6,942.5,587.5,914.1,509.9z M655.7,138.2c-1.7,10.7-2.2,21.3-1.2,31.6c0.3,2.8,0.6,5.5,1.1,8.3c-9.5-5.2-19.1-10-28.8-14.3C635.6,157.2,645.1,148.6,655.7,138.2z M373.3,163.8c-9.7,4.3-19.3,9.1-28.8,14.3c0.5-2.7,0.8-5.5,1.1-8.3c0.9-10.3,0.5-20.9-1.2-31.6C354.9,148.6,364.4,157.2,373.3,163.8z M500.2,959.4H500c-49.6,0-81.4-16-89.8-27.4c22.6,8.2,51.6,12.1,89.8,12.1c38,0,66.9-3.8,89.5-12C581,943.5,549.4,959.4,500.2,959.4z M500,867.5c-20.7,0-45.9-22.6-45.9-49c0-24.9,32.1-27.6,45.9-27.6c13.8,0,45.9,2.7,45.9,27.6C545.9,844.9,520.7,867.5,500,867.5z M600.8,927.3c0.1,0.1,0.2,0.1,0.3,0.2C601,927.5,600.9,927.4,600.8,927.3C600.8,927.4,600.8,927.3,600.8,927.3z M601.4,927.6c0.4,0.2,0.8,0.3,1.3,0.5C602.3,928,601.9,927.8,601.4,927.6z M603.3,928.2c0.4,0.1,0.7,0.2,1.1,0.3C604,928.4,603.7,928.3,603.3,928.2z M903,699.8c-4.7-1.6-9.8-0.8-13.8,2.1c-4,2.9-6.4,7.5-6.4,12.4V793l-68.1-45.4c-4.7-3.1-10.7-3.4-15.7-0.8c-5,2.7-8.1,7.8-8.1,13.5v27.8c-32-4.4-97.5-8.4-139.1,22.7c-4.2-49.6-18.2-91.3-32-131.9c-11.7-34.6-22.8-67.2-28.2-104.6c-1.2-8.4-9-14.2-17.3-13c-8.4,1.2-14.2,9-13,17.3c5.8,40.2,17.8,75.7,29.5,110c16.3,48,31.6,93.3,31.6,151.1c0,28.4-10.2,47-32.1,58.4c-17.2,9-41.3,13.8-75.1,14.8v-16.9c35.5-8.5,61.3-45.5,61.3-77.8c0-35.3-30.1-58.2-76.6-58.2c-46.5,0-76.6,22.8-76.6,58.2c0,32.3,25.8,69.3,61.3,77.8v16.9c-33.7-1.1-57.8-5.9-75.1-14.8c-21.9-11.4-32.1-30-32.1-58.4c0-60.5,15.8-107.8,32.5-157.9c10.8-32.3,21.9-65.7,28.5-102.8c1.5-8.3-4.1-16.3-12.4-17.7c-8.3-1.5-16.3,4.1-17.7,12.4c-6.2,34.9-17,67.2-27.4,98.5c-14.2,42.5-28.8,86.3-32.9,138.4c-41.6-31.1-107.1-27-139-22.7v-27.8c0-5.6-3.1-10.8-8.1-13.5c-5-2.7-11-2.4-15.7,0.8L117.2,793v-78.6c0-4.9-2.4-9.5-6.4-12.4c-4-2.9-9.1-3.7-13.8-2.1L72,708.2c6.9-107.8,63.1-294.7,178.9-419.1c5.8-6.2,5.4-15.9-0.8-21.6c-6.2-5.8-15.9-5.4-21.6,0.8c-9.1,9.8-17.8,19.9-26,30.1c-12-65.2-10.5-116.5-6.6-149.5c5-42.9,16.9-79.8,31.8-98.6c5.9-7.5,10.4-9.5,12.1-9.5c0.7,0,7.3,0.5,26.1,17.2c2.3,2,4.6,4.2,7,6.5c0.4,0.7,0.9,1.3,1.5,2C303.1,98,318,134.8,315,167c-1.7,19.2-9.8,34.8-23.4,45.2c-0.2,0.1-0.3,0.3-0.5,0.4c-0.2,0.2-0.4,0.4-0.7,0.6c-0.2,0.2-0.3,0.3-0.5,0.5c-0.2,0.2-0.4,0.4-0.6,0.6c-0.1,0.2-0.3,0.4-0.4,0.5c-0.2,0.2-0.4,0.4-0.5,0.7c-0.1,0.2-0.2,0.4-0.4,0.6c-0.1,0.2-0.3,0.5-0.4,0.7c-0.1,0.2-0.2,0.4-0.3,0.6c-0.1,0.2-0.3,0.5-0.4,0.7c-0.1,0.2-0.2,0.4-0.3,0.6c-0.1,0.2-0.2,0.5-0.3,0.7c-0.1,0.2-0.1,0.4-0.2,0.7c-0.1,0.2-0.2,0.5-0.2,0.7c-0.1,0.2-0.1,0.5-0.1,0.7c0,0.3-0.1,0.5-0.1,0.8c0,0.2,0,0.5-0.1,0.7c0,0.3-0.1,0.5-0.1,0.8c0,0.2,0,0.5,0,0.7c0,0.3,0,0.5,0,0.8c0,0.2,0,0.5,0.1,0.7c0,0.3,0,0.5,0.1,0.8c0,0.2,0.1,0.5,0.1,0.7c0,0.2,0.1,0.5,0.2,0.7c0.1,0.2,0.1,0.5,0.2,0.7c0.1,0.2,0.1,0.5,0.2,0.7c0.1,0.2,0.2,0.5,0.3,0.7c0.1,0.2,0.2,0.5,0.3,0.7c0.1,0.2,0.3,0.5,0.4,0.7c0.1,0.2,0.2,0.4,0.4,0.6c0.1,0.2,0.3,0.4,0.5,0.7c0.1,0.2,0.3,0.4,0.4,0.6c0,0,0,0,0,0c0,0,0,0,0,0.1c0.2,0.3,0.4,0.5,0.6,0.7c0.2,0.2,0.4,0.4,0.6,0.6c0.2,0.2,0.5,0.4,0.7,0.7c0.2,0.2,0.4,0.4,0.6,0.6c0.3,0.2,0.5,0.4,0.8,0.6c0.2,0.1,0.4,0.3,0.6,0.5c0.3,0.2,0.6,0.4,0.9,0.5c0.2,0.1,0.4,0.2,0.6,0.3c0.3,0.2,0.7,0.3,1,0.4c0.2,0.1,0.4,0.2,0.6,0.2c0.4,0.1,0.8,0.2,1.2,0.3c0.2,0,0.3,0.1,0.5,0.1c0.4,0.1,0.9,0.2,1.3,0.2c0.1,0,0.3,0.1,0.4,0.1c0.6,0.1,1.2,0.1,1.7,0.1l0,0l0,0c0.8,0,1.6-0.1,2.4-0.2c0.3,0,0.5-0.1,0.8-0.2c0.5-0.1,1.1-0.2,1.6-0.4c0.3-0.1,0.6-0.3,0.9-0.4c0.5-0.2,0.9-0.3,1.4-0.6c0.3-0.2,0.6-0.4,0.9-0.6c0.4-0.2,0.8-0.5,1.2-0.7c58.6-44.1,122.5-68.8,189.9-73.4c67.4,4.6,131.2,29.3,189.9,73.4c0.4,0.3,0.8,0.5,1.2,0.7c0.3,0.2,0.6,0.4,0.9,0.6c0.4,0.2,0.9,0.4,1.4,0.6c0.3,0.1,0.6,0.3,0.9,0.4c0.5,0.2,1.1,0.3,1.6,0.4c0.2,0.1,0.5,0.1,0.7,0.2c0.8,0.1,1.6,0.2,2.4,0.2l0,0l0,0c0.6,0,1.2,0,1.7-0.1c0.1,0,0.3-0.1,0.4-0.1c0.4-0.1,0.9-0.1,1.3-0.2c0.2,0,0.4-0.1,0.6-0.2c0.4-0.1,0.7-0.2,1.1-0.3c0.2-0.1,0.4-0.2,0.6-0.3c0.3-0.1,0.7-0.3,1-0.4c0.2-0.1,0.4-0.2,0.6-0.4c0.3-0.2,0.6-0.3,0.9-0.5c0.2-0.1,0.4-0.3,0.6-0.5c0.3-0.2,0.5-0.4,0.8-0.6c0.2-0.2,0.4-0.4,0.6-0.5c0.3-0.2,0.5-0.4,0.7-0.7c0.2-0.2,0.4-0.4,0.5-0.6c0.2-0.2,0.4-0.5,0.6-0.7c0,0,0,0,0-0.1c0,0,0,0,0,0c0.1-0.2,0.2-0.4,0.4-0.5c0.2-0.2,0.3-0.5,0.5-0.7c0.1-0.2,0.2-0.4,0.3-0.6c0.1-0.2,0.3-0.5,0.4-0.7c0.1-0.2,0.2-0.4,0.3-0.7c0.1-0.2,0.2-0.5,0.3-0.7c0.1-0.2,0.1-0.5,0.2-0.7c0.1-0.2,0.2-0.5,0.2-0.7c0.1-0.2,0.1-0.5,0.2-0.7c0-0.2,0.1-0.5,0.1-0.7c0-0.3,0.1-0.5,0.1-0.8c0-0.2,0.1-0.5,0.1-0.7c0-0.3,0-0.5,0-0.8c0-0.2,0-0.5,0-0.7c0-0.3,0-0.5-0.1-0.8c0-0.2,0-0.5-0.1-0.7c0-0.3-0.1-0.5-0.1-0.8c0-0.2-0.1-0.5-0.1-0.7c-0.1-0.3-0.1-0.5-0.2-0.7c-0.1-0.2-0.1-0.4-0.2-0.7c-0.1-0.2-0.2-0.5-0.3-0.7c-0.1-0.2-0.2-0.4-0.3-0.6c-0.1-0.2-0.2-0.5-0.4-0.7c-0.1-0.2-0.2-0.4-0.3-0.6c-0.1-0.2-0.3-0.5-0.4-0.7c-0.1-0.2-0.2-0.4-0.4-0.6c-0.2-0.2-0.3-0.4-0.5-0.7c-0.1-0.2-0.3-0.4-0.4-0.5c-0.2-0.2-0.4-0.4-0.6-0.6c-0.2-0.2-0.3-0.3-0.5-0.5c-0.2-0.2-0.4-0.4-0.7-0.6c-0.2-0.1-0.3-0.3-0.5-0.4c-13.6-10.4-21.6-26-23.4-45.2c-2.9-32.2,11.9-69,40.7-100.8c0.6-0.6,1-1.3,1.5-2c2.4-2.3,4.7-4.4,7-6.5c18.8-16.7,25.4-17.2,26.1-17.2c1.7,0,6.2,2,12.1,9.5c14.9,18.8,26.8,55.7,31.8,98.6c3.8,33.1,5.3,84.3-6.6,149.5c-8.2-10.2-16.9-20.3-26-30.1c-5.8-6.2-15.4-6.5-21.6-0.8c-6.2,5.8-6.5,15.4-0.8,21.6c115.8,124.5,172,311.3,178.9,419.1L903,699.8z"/></g><g></g><g></g><g></g><g></g><g></g><g></g><g></g><g></g><g></g><g></g><g></g><g></g><g></g><g></g><g></g></g>
</svg>